<?xml version="1.0" encoding="utf-8"?>
<!-- Generator: Adobe Illustrator 19.2.0, SVG Export Plug-In . SVG Version: 6.00 Build 0)  -->
<svg version="1.1" id="Layer_1" xmlns="http://www.w3.org/2000/svg" xmlns:xlink="http://www.w3.org/1999/xlink" x="0px" y="0px"
	 viewBox="0 0 40 16" style="enable-background:new 0 0 40 16;" xml:space="preserve">
<style type="text/css">
	.st0{clip-path:url(#SVGID_2_);fill:#5FC195;}
	.st1{clip-path:url(#SVGID_2_);fill:#375CAA;}
	.st2{fill:#F7A39A;}
	.st3{clip-path:url(#SVGID_4_);fill:#EF4126;}
	.st4{fill:#A31F5D;}
	.st5{fill:#6C2C8C;}
</style>
<g>
	<defs>
		<rect id="SVGID_1_" x="0" y="4" width="38.9" height="8.3"/>
	</defs>
	<clipPath id="SVGID_2_">
		<use xlink:href="#SVGID_1_"  style="overflow:visible;"/>
	</clipPath>
	<path class="st0" d="M3.8,5C3.2,4.5,2.4,4.3,1.4,4.3H0V6h0.2h0.9c0.8,0,1.2,0.3,1.2,1c0,0.7-0.4,1-1.2,1H0.2H0v1.8h1.4
		c1,0,1.8-0.2,2.4-0.7c0.5-0.5,0.8-1.2,0.8-2C4.6,6.1,4.3,5.5,3.8,5"/>
	<path class="st1" d="M18.4,5c-0.5-0.5-1.3-0.7-2.4-0.7h-1.4V6h0.2h0.9c0.8,0,1.2,0.3,1.2,1c0,0.7-0.4,1-1.2,1h-0.9h-0.2v1.8H16
		c1,0,1.8-0.2,2.4-0.7c0.5-0.5,0.8-1.2,0.8-2C19.2,6.1,18.9,5.5,18.4,5"/>
</g>
<rect x="21.6" y="4.3" class="st2" width="2" height="7.9"/>
<g>
	<defs>
		<rect id="SVGID_3_" x="0" y="4" width="38.9" height="8.3"/>
	</defs>
	<clipPath id="SVGID_4_">
		<use xlink:href="#SVGID_3_"  style="overflow:visible;"/>
	</clipPath>
	<path class="st3" d="M37.3,6.1C37.3,6.1,37.3,6.2,37.3,6.1c-0.1,0.2-0.1,0.3-0.1,0.4c0,0.1,0.1,0.3,0.2,0.5
		c0.1,0.1,0.1,0.2,0.2,0.3c0.1,0.1,0.2,0.3,0.3,0.4c0.4,0.5,0.6,1,0.8,1.4c0.2,0.4,0.3,0.8,0.2,1.2c0,0.4-0.2,0.8-0.6,1.2
		c-0.3,0.4-0.7,0.6-1.2,0.7c-0.3,0.1-0.7,0.1-1.1,0c0,0-0.1,0-0.1,0l0.4-2.1c0,0,0,0,0.1-0.1c0.1-0.1,0.2-0.2,0.2-0.4
		c0-0.1-0.1-0.3-0.1-0.4c-0.1-0.1-0.2-0.3-0.3-0.5c-0.1-0.1-0.1-0.2-0.2-0.3c-0.4-0.6-0.6-1-0.8-1.4C35,6.7,34.9,6.4,34.9,6
		c0-0.4,0.2-0.8,0.5-1.2c0.3-0.4,0.7-0.6,1.1-0.7c0.3-0.1,0.7-0.1,1,0c0,0,0,0,0,0L37.3,6.1z"/>
</g>
<rect x="7.2" y="4.3" class="st4" width="4.3" height="1.8"/>
<rect x="7.2" y="7.3" class="st4" width="4.1" height="1.8"/>
<rect x="7.2" y="10.4" class="st4" width="4.2" height="1.8"/>
<polygon class="st5" points="32.3,9.6 32.2,12.2 26.5,6.9 26.5,4.2 "/>
</svg>
